<?xml version="1.0" standalone="no"?>
<svg xmlns:xlink="http://www.w3.org/1999/xlink" id="wave" style="transform:rotate(180deg); transition: 0.3s" viewBox="0 0 1440 100" version="1.1" xmlns="http://www.w3.org/2000/svg"><defs><linearGradient id="sw-gradient-0" x1="0" x2="0" y1="1" y2="0"><stop stop-color="rgba(255, 249, 234, 1)" offset="0%"/><stop stop-color="rgba(255, 249, 234, 1)" offset="100%"/></linearGradient></defs><path style="transform:translate(0, 0px); opacity:1" fill="url(#sw-gradient-0)" d="M0,60L26.7,53.3C53.3,47,107,33,160,35C213.3,37,267,53,320,61.7C373.3,70,427,70,480,65C533.3,60,587,50,640,48.3C693.3,47,747,53,800,60C853.3,67,907,73,960,66.7C1013.3,60,1067,40,1120,40C1173.3,40,1227,60,1280,61.7C1333.3,63,1387,47,1440,35C1493.3,23,1547,17,1600,25C1653.3,33,1707,57,1760,58.3C1813.3,60,1867,40,1920,40C1973.3,40,2027,60,2080,60C2133.3,60,2187,40,2240,30C2293.3,20,2347,20,2400,18.3C2453.3,17,2507,13,2560,16.7C2613.3,20,2667,30,2720,40C2773.3,50,2827,60,2880,61.7C2933.3,63,2987,57,3040,48.3C3093.3,40,3147,30,3200,23.3C3253.3,17,3307,13,3360,18.3C3413.3,23,3467,37,3520,48.3C3573.3,60,3627,70,3680,63.3C3733.3,57,3787,33,3813,21.7L3840,10L3840,100L3813.3,100C3786.7,100,3733,100,3680,100C3626.7,100,3573,100,3520,100C3466.7,100,3413,100,3360,100C3306.7,100,3253,100,3200,100C3146.7,100,3093,100,3040,100C2986.7,100,2933,100,2880,100C2826.7,100,2773,100,2720,100C2666.7,100,2613,100,2560,100C2506.7,100,2453,100,2400,100C2346.7,100,2293,100,2240,100C2186.7,100,2133,100,2080,100C2026.7,100,1973,100,1920,100C1866.7,100,1813,100,1760,100C1706.7,100,1653,100,1600,100C1546.7,100,1493,100,1440,100C1386.7,100,1333,100,1280,100C1226.7,100,1173,100,1120,100C1066.7,100,1013,100,960,100C906.7,100,853,100,800,100C746.7,100,693,100,640,100C586.7,100,533,100,480,100C426.7,100,373,100,320,100C266.7,100,213,100,160,100C106.7,100,53,100,27,100L0,100Z"/></svg>